<svg width="31" height="31" viewBox="0 0 31 31" fill="none" xmlns="http://www.w3.org/2000/svg">
<path d="M15.2434 2.74499C19.3162 2.74499 19.7985 2.76286 21.4002 2.83431C22.8888 2.89981 23.6927 3.1499 24.2286 3.3583C24.9372 3.63221 25.4493 3.96565 25.9792 4.4956C26.5151 5.0315 26.8426 5.53762 27.1165 6.2462C27.3249 6.7821 27.575 7.5919 27.6405 9.07456C27.7119 10.6823 27.7298 11.1646 27.7298 15.2314C27.7298 19.3043 27.7119 19.7866 27.6405 21.3883C27.575 22.8769 27.3249 23.6808 27.1165 24.2167C26.8426 24.9253 26.5091 25.4373 25.9792 25.9673C25.4433 26.5032 24.9372 26.8307 24.2286 27.1046C23.6927 27.313 22.8829 27.5631 21.4002 27.6286C19.7925 27.7 19.3102 27.7179 15.2434 27.7179C11.1705 27.7179 10.6882 27.7 9.08647 27.6286C7.59786 27.5631 6.79401 27.313 6.25811 27.1046C5.54953 26.8307 5.03745 26.4972 4.50751 25.9673C3.97161 25.4314 3.64411 24.9253 3.37021 24.2167C3.1618 23.6808 2.91172 22.871 2.84622 21.3883C2.77477 19.7806 2.7569 19.2983 2.7569 15.2314C2.7569 11.1586 2.77477 10.6763 2.84622 9.07456C2.91172 7.58595 3.1618 6.7821 3.37021 6.2462C3.64411 5.53762 3.97756 5.02554 4.50751 4.4956C5.04341 3.9597 5.54953 3.63221 6.25811 3.3583C6.79401 3.1499 7.60381 2.89981 9.08647 2.83431C10.6882 2.76286 11.1705 2.74499 15.2434 2.74499ZM15.2434 0C11.105 0 10.587 0.0178633 8.96142 0.0893165C7.34182 0.16077 6.22834 0.422765 5.26372 0.797894C4.25742 1.19089 3.40594 1.70892 2.56041 2.56041C1.70892 3.40594 1.19089 4.25742 0.797894 5.25777C0.422765 6.22834 0.16077 7.33586 0.0893165 8.95547C0.0178633 10.587 0 11.105 0 15.2434C0 19.3817 0.0178633 19.8997 0.0893165 21.5253C0.16077 23.1449 0.422765 24.2584 0.797894 25.223C1.19089 26.2293 1.70892 27.0808 2.56041 27.9263C3.40594 28.7718 4.25742 29.2958 5.25777 29.6829C6.22834 30.058 7.33586 30.32 8.95547 30.3914C10.581 30.4629 11.0991 30.4808 15.2374 30.4808C19.3757 30.4808 19.8938 30.4629 21.5193 30.3914C23.1389 30.32 24.2524 30.058 25.217 29.6829C26.2174 29.2958 27.0689 28.7718 27.9144 27.9263C28.7599 27.0808 29.2839 26.2293 29.6709 25.2289C30.0461 24.2584 30.3081 23.1508 30.3795 21.5312C30.451 19.9057 30.4688 19.3876 30.4688 15.2493C30.4688 11.111 30.451 10.5929 30.3795 8.96738C30.3081 7.34777 30.0461 6.23429 29.6709 5.26967C29.2958 4.25742 28.7778 3.40594 27.9263 2.56041C27.0808 1.71488 26.2293 1.19089 25.2289 0.803849C24.2584 0.428719 23.1508 0.166724 21.5312 0.095271C19.8997 0.0178633 19.3817 0 15.2434 0Z" fill="white"/>
<path d="M15.2434 7.41333C10.9204 7.41333 7.41327 10.9205 7.41327 15.2434C7.41327 19.5663 10.9204 23.0735 15.2434 23.0735C19.5663 23.0735 23.0734 19.5663 23.0734 15.2434C23.0734 10.9205 19.5663 7.41333 15.2434 7.41333ZM15.2434 20.3225C12.4388 20.3225 10.1642 18.0479 10.1642 15.2434C10.1642 12.4389 12.4388 10.1643 15.2434 10.1643C18.0479 10.1643 20.3225 12.4389 20.3225 15.2434C20.3225 18.0479 18.0479 20.3225 15.2434 20.3225Z" fill="white"/>
<path d="M25.2111 7.10353C25.2111 8.11578 24.3894 8.93154 23.3831 8.93154C22.3708 8.93154 21.5551 8.10983 21.5551 7.10353C21.5551 6.09127 22.3768 5.27551 23.3831 5.27551C24.3894 5.27551 25.2111 6.09723 25.2111 7.10353Z" fill="white"/>
</svg>
