<svg width="32" height="31" viewBox="0 0 32 31" fill="none" xmlns="http://www.w3.org/2000/svg">
<path d="M29.1741 0.240356H2.75751C1.49208 0.240356 0.468842 1.20715 0.468842 2.40247V28.0724C0.468842 29.2677 1.49208 30.2404 2.75751 30.2404H29.1741C30.4395 30.2404 31.4688 29.2677 31.4688 28.0782V2.40247C31.4688 1.20715 30.4395 0.240356 29.1741 0.240356ZM9.66591 25.8048H5.06435V11.4845H9.66591V25.8048ZM7.36513 9.53333C5.88779 9.53333 4.69501 8.37903 4.69501 6.9552C4.69501 5.53137 5.88779 4.37708 7.36513 4.37708C8.83642 4.37708 10.0292 5.53137 10.0292 6.9552C10.0292 8.37317 8.83642 9.53333 7.36513 9.53333ZM26.8854 25.8048H22.2899V18.8439C22.2899 17.1857 22.2597 15.047 19.8983 15.047C17.5067 15.047 17.1434 16.8575 17.1434 18.7267V25.8048H12.554V11.4845H16.9618V13.4415H17.0224C17.6339 12.3165 19.1354 11.1271 21.3696 11.1271C26.0257 11.1271 26.8854 14.0919 26.8854 17.9474V25.8048Z" fill="white"/>
</svg>
